<?xml version="1.0" encoding="UTF-8"?>
<svg xmlns="http://www.w3.org/2000/svg" xmlns:xlink="http://www.w3.org/1999/xlink" width="96pt" height="96pt" viewBox="0 0 96 96" version="1.1">
<g id="surface4812734">
<path style=" stroke:none;fill-rule:nonzero;fill:rgb(00%,00%,00%);fill-opacity:1;" d="M 65.613281 36 L 56 36 L 56 28 C 56 23.871094 56.335938 21.273438 62.253906 21.273438 L 65.722656 21.273438 C 67.933594 21.273438 69.722656 19.480469 69.722656 17.273438 L 69.722656 12.257812 C 69.722656 10.164062 68.121094 8.375 66.03125 8.234375 C 63.617188 8.070312 61.195312 7.996094 58.773438 8 C 47.921875 8 40 14.628906 40 26.796875 L 40 36 L 32 36 C 29.792969 36 28 37.792969 28 40 L 28 48 C 28 50.207031 29.792969 52 32 52 L 40 51.996094 L 40 84 C 40 86.207031 41.792969 88 44 88 L 52 88 C 54.207031 88 56 86.207031 56 84 L 56 51.988281 L 64.695312 51.984375 C 66.726562 51.984375 68.4375 50.460938 68.667969 48.441406 L 69.585938 40.457031 C 69.859375 38.085938 68.003906 36 65.613281 36 Z M 65.613281 36 "/>
</g>
</svg>
